<?xml version="1.0" standalone="no"?><!DOCTYPE svg PUBLIC "-//W3C//DTD SVG 1.1//EN" "http://www.w3.org/Graphics/SVG/1.1/DTD/svg11.dtd"><svg t="1629215754062" class="icon" viewBox="0 0 1024 1024" version="1.1" xmlns="http://www.w3.org/2000/svg" p-id="6603" xmlns:xlink="http://www.w3.org/1999/xlink" width="200" height="200"><defs><style type="text/css"></style></defs><path d="M512 85.333333C276.053333 85.333333 85.333333 276.053333 85.333333 512s190.72 426.666667 426.666667 426.666667 426.666667-190.72 426.666667-426.666667S747.946667 85.333333 512 85.333333z m183.466667 610.133334a42.496 42.496 0 0 1-60.16 0L512 572.16 388.693333 695.466667a42.496 42.496 0 0 1-72.533333-29.866667c0-11.093333 4.693333-22.186667 12.373333-29.866667l123.306667-123.733333L328.533333 388.693333c-8.106667-8.106667-12.373333-18.773333-12.373333-30.293333s4.266667-21.76 12.373333-29.866667a42.496 42.496 0 0 1 60.16 0L512 451.84l123.306667-123.306667a42.496 42.496 0 1 1 60.16 60.16L572.16 512l123.306667 123.306667c16.213333 16.213333 16.213333 43.52 0 60.16z" p-id="6604" fill="#ff5555"></path></svg>