<svg xmlns="http://www.w3.org/2000/svg" width="56" height="30" viewBox="0 0 56 30">
  <defs>
    <style>
      .cls-1, .cls-5, .cls-8 {
        fill: none;
      }

      .cls-1 {
        stroke: #000;
      }

      .cls-2 {
        font-size: 14px;
        font-family: PingFangSC-Heavy, PingFang SC;
        font-weight: 800;
      }

      .cls-3 {
        fill: #26aef9;
      }

      .cls-4 {
        fill: #0aa0f2;
      }

      .cls-5 {
        stroke-miterlimit: 10;
      }

      .cls-6 {
        fill: #f97878;
        stroke: #707070;
        stroke-width: 0.5px;
      }

      .cls-7, .cls-9 {
        stroke: none;
      }

      .cls-9 {
        fill: #000;
      }
    </style>
  </defs>
  <g id="记账-标签-衣" transform="translate(-97 -191)">
    <g id="组_47" data-name="组 47" transform="translate(69 41)">
      <g id="矩形_11" data-name="矩形 11" class="cls-1" transform="translate(28 150)">
        <rect class="cls-7" width="56" height="30" rx="15"/>
        <rect class="cls-8" x="0.5" y="0.5" width="55" height="29" rx="14.5"/>
      </g>
      <text id="衣" class="cls-2" transform="translate(60.647 170)"><tspan x="0" y="0">衣</tspan></text>
    </g>
    <g id="组_59" data-name="组 59" transform="translate(-49.727 -251.664)">
      <path id="路径_9" data-name="路径 9" class="cls-3" d="M174.373,455.427l-2.344,1.147V467H158.424V456.574l-2.344-1.147,2.31-5.611,3.36-1.281.575-.22a.263.263,0,0,1,.344.168,2.594,2.594,0,0,0,5.114,0,.263.263,0,0,1,.344-.168l.7.268,3.234,1.234Z" transform="translate(0)"/>
      <path id="路径_10" data-name="路径 10" class="cls-4" d="M206.111,448.847c0,1.558-1.592,2.823-3.555,2.823S199,450.406,199,448.847a2.218,2.218,0,0,1,.018-.282l.575-.248a.257.257,0,0,1,.344.189,2.56,2.56,0,0,0,5.114,0,.257.257,0,0,1,.344-.189l.7.3A1.884,1.884,0,0,1,206.111,448.847Z" transform="translate(-37.268)"/>
      <g id="路径_11" data-name="路径 11" class="cls-5" transform="translate(-0.489)">
        <path class="cls-7" d="M174.64,455.535l-1.975.966a.263.263,0,0,0-.148.237V467H158.913V456.738a.263.263,0,0,0-.148-.237l-1.975-.966a.263.263,0,0,1-.128-.337l2.216-5.383,3.361-1.281.575-.22a.263.263,0,0,1,.344.168,2.594,2.594,0,0,0,5.114,0,.263.263,0,0,1,.344-.168l.7.268,3.234,1.234,2.216,5.383A.263.263,0,0,1,174.64,455.535Z"/>
        <path class="cls-9" d="M 168.6669006347656 448.8689880371094 C 168.1396026611328 450.2577209472656 167.0029602050781 451.1416015625 165.7152557373047 451.1416015625 C 164.4276275634766 451.1416015625 163.2910919189453 450.2579345703125 162.7638244628906 448.8693542480469 L 162.4169769287109 449.0019226074219 L 159.2584228515625 450.2061767578125 L 157.2094421386719 455.183837890625 L 158.9849700927734 456.0526428222656 C 159.2447357177734 456.179931640625 159.4125823974609 456.4490356445312 159.4125823974609 456.7382202148438 L 159.4125823974609 466.5030517578125 L 172.0179443359375 466.5030517578125 L 172.0179443359375 456.7382202148438 C 172.0179443359375 456.448974609375 172.1858215332031 456.1798706054688 172.44580078125 456.0525207519531 L 174.2210998535156 455.1838684082031 L 172.1720733642578 450.2061157226562 L 168.6669006347656 448.8689880371094 M 168.5232238769531 448.2973327636719 C 168.5541534423828 448.2973327636719 168.5856628417969 448.3028869628906 168.6164855957031 448.3146362304688 L 172.5521850585938 449.8159790039062 L 174.7678680419922 455.1986083984375 C 174.8207855224609 455.3270263671875 174.7648315429688 455.4744873046875 174.64013671875 455.5354614257812 L 172.6655578613281 456.5016479492188 C 172.5752105712891 456.5458984375 172.5179443359375 456.6376342773438 172.5179443359375 456.7382202148438 L 172.5179443359375 467.0030517578125 L 158.9125823974609 467.0030517578125 L 158.9125823974609 456.7382202148438 C 158.9125823974609 456.6376342773438 158.8552856445312 456.5458984375 158.7649688720703 456.5016479492188 L 156.7904205322266 455.5354614257812 C 156.6657104492188 455.4744873046875 156.6097412109375 455.3270263671875 156.6626739501953 455.1986083984375 L 158.8783416748047 449.8159790039062 L 162.8139190673828 448.31494140625 C 162.95556640625 448.2607727050781 163.1124572753906 448.3379516601562 163.1584014892578 448.4825439453125 C 163.5595092773438 449.7456665039062 164.5522766113281 450.6416015625 165.7152557373047 450.6416015625 C 166.8782806396484 450.6416015625 167.8711547851562 449.7455444335938 168.2722473144531 448.4823608398438 C 168.3082275390625 448.3692016601562 168.4119262695312 448.2973327636719 168.5232238769531 448.2973327636719 Z"/>
      </g>
      <rect id="矩形_25" data-name="矩形 25" class="cls-6" width="5.794" height="1.844" rx="0.922" transform="translate(162.39 453.789)"/>
    </g>
  </g>
</svg>
