<svg xmlns="http://www.w3.org/2000/svg" width="56" height="30" viewBox="0 0 56 30">
  <defs>
    <style>
      .cls-1, .cls-6, .cls-8 {
        fill: none;
      }

      .cls-1, .cls-4, .cls-6 {
        stroke: #000;
      }

      .cls-2 {
        font-size: 14px;
        font-family: PingFangSC-Heavy, PingFang SC;
        font-weight: 800;
      }

      .cls-3 {
        fill: #ffd9bd;
      }

      .cls-3, .cls-4, .cls-6 {
        stroke-miterlimit: 10;
      }

      .cls-4 {
        fill: #f4d122;
      }

      .cls-4, .cls-6 {
        stroke-width: 0.5px;
      }

      .cls-5 {
        fill: #e2a100;
      }

      .cls-7, .cls-9 {
        stroke: none;
      }

      .cls-9 {
        fill: #000;
      }
    </style>
  </defs>
  <g id="记账-标签-食" transform="translate(-166 -191)">
    <g id="组_61" data-name="组 61" transform="translate(69)">
      <g id="组_47" data-name="组 47" transform="translate(69 41)">
        <g id="矩形_11" data-name="矩形 11" class="cls-1" transform="translate(28 150)">
          <rect class="cls-7" width="56" height="30" rx="15"/>
          <rect class="cls-8" x="0.5" y="0.5" width="55" height="29" rx="14.5"/>
        </g>
        <text id="食" class="cls-2" transform="translate(60.647 170)"><tspan x="0" y="0">食</tspan></text>
      </g>
    </g>
    <g id="组_64" data-name="组 64" transform="translate(-243.515 -261.322)">
      <g id="路径_12" data-name="路径 12" class="cls-3" transform="translate(-11.16 0)">
        <path class="cls-7" d="M 438.9913940429688 473.1431274414062 C 438.9912414550781 473.1431274414062 438.9914855957031 473.1431274414062 438.9913024902344 473.1431274414062 C 438.4722290039062 473.1430969238281 437.9507446289062 473.0805053710938 437.4413146972656 472.95703125 C 434.9703674316406 472.3583068847656 433.0529479980469 470.3546752929688 432.5564575195312 467.8525695800781 L 432.5102233886719 467.61962890625 L 432.2752075195312 467.6538391113281 C 432.2027282714844 467.6643981933594 432.1297302246094 467.6697387695312 432.0581665039062 467.6697387695312 C 431.9452819824219 467.6697387695312 431.8331604003906 467.6564636230469 431.7250061035156 467.6302490234375 C 431.3479614257812 467.5389099121094 431.029052734375 467.3062133789062 430.8270874023438 466.9749755859375 C 430.6250915527344 466.6437377929688 430.5641784667969 466.2536315917969 430.6555786132812 465.8764953613281 C 430.7761535644531 465.3789672851562 431.144775390625 464.9901733398438 431.6416015625 464.83642578125 L 431.9237670898438 464.7491149902344 L 431.791015625 464.4852294921875 C 431.6319274902344 464.1689758300781 431.5903015136719 463.8265075683594 431.670654296875 463.4949035644531 C 431.8279418945312 462.8459777832031 432.4067993164062 462.3927612304688 433.0783386230469 462.3927612304688 C 433.142578125 462.3927612304688 433.2075805664062 462.3970642089844 433.2715454101562 462.4055480957031 L 433.6593627929688 462.4570007324219 L 433.5431213378906 462.0834350585938 C 433.4623413085938 461.8237915039062 433.4522094726562 461.5647888183594 433.5130004882812 461.3136291503906 C 433.6715698242188 460.6596984863281 434.2514343261719 460.2029418945312 434.923095703125 460.2029418945312 C 435.0381164550781 460.2029418945312 435.1537475585938 460.2168273925781 435.2667541503906 460.2442321777344 C 435.39208984375 460.2745361328125 435.5163879394531 460.3275451660156 435.6581420898438 460.4110717773438 L 435.7881774902344 460.4877014160156 L 435.9165344238281 460.4083251953125 C 436.1436767578125 460.2678833007812 436.4068908691406 460.1936340332031 436.6777648925781 460.1936340332031 L 436.6973876953125 460.1937561035156 L 436.8543701171875 460.1958312988281 L 436.9244079589844 460.0553283691406 C 437.1683044433594 459.5662231445312 437.6773071289062 459.2501831054688 438.2212219238281 459.2501831054688 C 438.335693359375 459.2501831054688 438.4508056640625 459.2640075683594 438.5633850097656 459.2912902832031 C 438.9165954589844 459.3768920898438 439.2238464355469 459.594482421875 439.4285278320312 459.9039611816406 L 439.5733032226562 460.1228332519531 L 439.784912109375 459.9676513671875 C 439.9664611816406 459.83447265625 440.1775817871094 459.7640991210938 440.3954162597656 459.7640991210938 C 440.4744567871094 459.7640991210938 440.5539245605469 459.7736511230469 440.6316223144531 459.79248046875 C 440.8743896484375 459.8512878417969 441.0881652832031 460.000732421875 441.2335205078125 460.2131958007812 L 441.3606567382812 460.3989868164062 L 441.5586853027344 460.2919616699219 C 441.712158203125 460.2090454101562 441.8824157714844 460.1652221679688 442.0510864257812 460.1652221679688 C 442.1299133300781 460.1652221679688 442.2090148925781 460.1747131347656 442.2862243652344 460.1934204101562 C 442.57666015625 460.2637939453125 442.82177734375 460.4618530273438 442.9587097167969 460.73681640625 L 443.0757446289062 460.9718322753906 L 443.3047485351562 460.8434448242188 C 443.5253295898438 460.7197570800781 443.7721862792969 460.6543884277344 444.0186767578125 460.6543884277344 C 444.1311645507812 460.6543884277344 444.244140625 460.6679382324219 444.3544311523438 460.6946716308594 C 444.7315368652344 460.7860717773438 445.0504455566406 461.018798828125 445.2524719238281 461.3500366210938 C 445.453857421875 461.6802673339844 445.5150451660156 462.0689392089844 445.4248962402344 462.4449157714844 C 445.4237670898438 462.447998046875 445.4224853515625 462.4510192871094 445.4212646484375 462.4540710449219 C 445.4140319824219 462.4721374511719 445.4071655273438 462.4903564453125 445.401611328125 462.5094604492188 L 445.3496398925781 462.6883544921875 L 445.5061950683594 462.789306640625 C 445.8740234375 463.0265502929688 446.0525817871094 463.4687805175781 445.9505310058594 463.8897705078125 C 445.921875 464.0084533691406 445.8691711425781 464.1235046386719 445.7938232421875 464.2319030761719 L 445.6242980957031 464.4757995605469 L 445.8935852050781 464.6011962890625 C 446.5176086425781 464.8918151855469 446.8526916503906 465.5889282226562 446.6903076171875 466.2587890625 C 446.5983581542969 466.6382751464844 446.3628234863281 466.95849609375 446.027099609375 467.1605529785156 L 445.8977661132812 467.2384033203125 L 445.9064025878906 467.3890991210938 C 445.9158325195312 467.5532531738281 445.9061279296875 467.6880493164062 445.8757934570312 467.8133239746094 C 445.7888793945312 468.1715698242188 445.5679016113281 468.4814147949219 445.2535095214844 468.6856079101562 L 445.1829528808594 468.7314453125 L 445.1544494628906 468.8105773925781 C 444.2215270996094 471.4018859863281 441.7445983886719 473.1431274414062 438.9913940429688 473.1431274414062 Z"/>
        <path class="cls-9" d="M 438.9913940429688 473.3931274414062 L 438.9913940429688 472.8931274414062 C 441.6396484375 472.8931274414062 444.0218811035156 471.2184448242188 444.9192504882812 468.7258911132812 L 444.9762268066406 468.5675964355469 L 445.1173095703125 468.4759521484375 C 445.3779602050781 468.3066711425781 445.5610656738281 468.0503540039062 445.6328125 467.7544860839844 C 445.6571655273438 467.6538391113281 445.664794921875 467.5422973632812 445.6568298339844 467.4034423828125 L 445.6394958496094 467.1020202636719 L 445.8981628417969 466.9463500976562 C 446.1762084960938 466.7790222167969 446.3712463378906 466.513916015625 446.4473571777344 466.1999206542969 C 446.581787109375 465.6453857421875 446.3044738769531 465.0683288574219 445.7880554199219 464.8278198242188 L 445.24951171875 464.5770568847656 L 445.5885314941406 464.0892333984375 C 445.6461181640625 464.0063171386719 445.6861572265625 463.9195251464844 445.7075805664062 463.8309020996094 C 445.7845764160156 463.51318359375 445.6492004394531 463.1790161132812 445.3706970214844 462.9994201660156 L 445.0575866699219 462.7974853515625 L 445.1615600585938 462.439697265625 C 445.1699829101562 462.41064453125 445.1790771484375 462.3866577148438 445.1856689453125 462.3699951171875 C 445.2545776367188 462.0639343261719 445.2027893066406 461.7487182617188 445.0390319824219 461.480224609375 C 444.8717956542969 461.2059936523438 444.6077575683594 461.0133056640625 444.2955017089844 460.9376525878906 C 444.0044250488281 460.8670959472656 443.6937255859375 460.9119262695312 443.4270324707031 461.0614929199219 L 442.9690246582031 461.3182983398438 L 442.7349243164062 460.8482666015625 C 442.6294250488281 460.6364135742188 442.4491577148438 460.4901123046875 442.2273559570312 460.4363708496094 C 442.04443359375 460.3920288085938 441.8489074707031 460.4192810058594 441.6775512695312 460.5119018554688 L 441.2814331054688 460.7259521484375 L 441.0271911621094 460.3543701171875 C 440.9490661621094 460.2401733398438 440.8068237304688 460.0921630859375 440.57275390625 460.0354309082031 C 440.3520202636719 459.9820251464844 440.1210021972656 460.0311889648438 439.9327697753906 460.1692199707031 L 439.5095520019531 460.4796447753906 L 439.2200012207031 460.0418701171875 C 439.0502624511719 459.7852172851562 438.7961730957031 459.6049499511719 438.5045166015625 459.5342712402344 C 438.4111938476562 459.5116577148438 438.3158874511719 459.5001831054688 438.2212219238281 459.5001831054688 C 437.7713012695312 459.5001831054688 437.35009765625 459.7618713378906 437.1481323242188 460.1669006347656 L 437.008056640625 460.4478759765625 L 436.6777648925781 460.4436340332031 C 436.453369140625 460.4436340332031 436.235595703125 460.5049438476562 436.0480346679688 460.6209411621094 L 435.7912902832031 460.7796936035156 L 435.53125 460.62646484375 C 435.4113464355469 460.5558166503906 435.3086547851562 460.5115661621094 435.2078552246094 460.4872131347656 C 435.1140747070312 460.4644470214844 435.0182800292969 460.4529418945312 434.923095703125 460.4529418945312 C 434.3671875 460.4529418945312 433.8872375488281 460.8311462402344 433.7559814453125 461.3724670410156 C 433.7059631347656 461.5790710449219 433.7146606445312 461.7932739257812 433.7818298339844 462.0091552734375 L 434.0142822265625 462.7562561035156 L 433.2386779785156 462.6533813476562 C 433.185546875 462.6463317871094 433.1316223144531 462.6427612304688 433.0783386230469 462.6427612304688 C 432.5225830078125 462.6427612304688 432.0436401367188 463.0173950195312 431.9136047363281 463.5537719726562 C 431.8299560546875 463.8989868164062 431.9222106933594 464.1897583007812 432.0143432617188 464.3728942871094 L 432.2798461914062 464.9006042480469 L 431.7155151367188 465.0752563476562 C 431.3035888671875 465.2026977539062 430.9981994628906 465.5242614746094 430.8985290527344 465.9353942871094 C 430.8228759765625 466.2475891113281 430.8733215332031 466.5705871582031 431.04052734375 466.8448181152344 C 431.2077331542969 467.1190185546875 431.4717102050781 467.3116760253906 431.7838439941406 467.3872680664062 C 431.9297180175781 467.422607421875 432.0840454101562 467.4291076660156 432.2391967773438 467.4064636230469 L 432.7091979980469 467.3380126953125 L 432.8016662597656 467.8039245605469 C 433.2792663574219 470.2108459472656 435.1235656738281 472.13818359375 437.5002136230469 472.7140808105469 C 437.9903564453125 472.8328857421875 438.4920349121094 472.8930969238281 438.9913024902344 472.8931274414062 L 438.9913940429688 473.3931274414062 M 438.9913024902344 473.3931274414062 C 438.4605407714844 473.3930969238281 437.9211730957031 473.33056640625 437.3824462890625 473.2000122070312 C 434.7192687988281 472.5546875 432.8116760253906 470.4232788085938 432.3112182617188 467.9012451171875 C 432.1020202636719 467.9317626953125 431.8840942382812 467.9259948730469 431.6661376953125 467.8732299804688 C 430.7522888183594 467.65185546875 430.191162109375 466.7315063476562 430.41259765625 465.817626953125 C 430.5591430664062 465.2130737304688 431.0136413574219 464.76904296875 431.5676879882812 464.5975952148438 C 431.3927612304688 464.2498779296875 431.3288269042969 463.843994140625 431.4276733398438 463.43603515625 C 431.6347351074219 462.5819702148438 432.452392578125 462.0447082519531 433.3044128417969 462.15771484375 C 433.2160339355469 461.8736572265625 433.1949768066406 461.5648193359375 433.27001953125 461.2548217773438 C 433.4916076660156 460.3409118652344 434.411865234375 459.7796630859375 435.32568359375 460.0012817382812 C 435.4932556152344 460.0418090820312 435.6437683105469 460.1124267578125 435.7850646972656 460.1956787109375 C 436.0552368164062 460.0285949707031 436.3721618652344 459.9398498535156 436.70068359375 459.9437866210938 C 437.0472106933594 459.2488403320312 437.8356628417969 458.8576965332031 438.6222839355469 459.04833984375 C 439.0572509765625 459.1537475585938 439.4082946777344 459.420166015625 439.6370544433594 459.7660522460938 C 439.9302062988281 459.5509948730469 440.3092956542969 459.45703125 440.6904907226562 459.5494995117188 C 441.0098266601562 459.6268920898438 441.2678833007812 459.8206787109375 441.4398498535156 460.072021484375 C 441.7076721191406 459.9272766113281 442.0259704589844 459.8730773925781 442.3450927734375 459.950439453125 C 442.7261962890625 460.0427856445312 443.0203552246094 460.2998046875 443.1824951171875 460.6253662109375 C 443.5443115234375 460.4224548339844 443.9784851074219 460.3462524414062 444.413330078125 460.4517211914062 C 445.3271789550781 460.6731567382812 445.8884582519531 461.593505859375 445.6670227050781 462.50732421875 C 445.6609191894531 462.5325927734375 445.6488952636719 462.554443359375 445.6416931152344 462.5792236328125 C 446.0855407714844 462.865478515625 446.3249206542969 463.406494140625 446.1935119628906 463.9486694335938 C 446.1553344726562 464.106689453125 446.0866088867188 464.2486572265625 445.9991149902344 464.3745727539062 C 446.7192077636719 464.7098999023438 447.1275939941406 465.5160522460938 446.9332885742188 466.3176879882812 C 446.8216857910156 466.7781372070312 446.5322570800781 467.1483154296875 446.156005859375 467.374755859375 C 446.1654052734375 467.538330078125 446.1593322753906 467.70458984375 446.1187744140625 467.8721313476562 C 446.0121154785156 468.3118896484375 445.7413940429688 468.6668090820312 445.3896789550781 468.895263671875 C 444.4105529785156 471.6149291992188 441.8218994140625 473.3931579589844 438.9913024902344 473.3931274414062 Z"/>
      </g>
      <path id="路径_13" data-name="路径 13" class="cls-4" d="M437.238,504.583h-19.55a.276.276,0,0,0-.277.281,10.061,10.061,0,0,0,7.538,9.458V515.4h5.028v-1.082a10.061,10.061,0,0,0,7.538-9.458A.276.276,0,0,0,437.238,504.583Z" transform="translate(0 -39.27)"/>
      <g id="组_63" data-name="组 63" transform="translate(431.739 465.313)">
        <path id="路径_14" data-name="路径 14" class="cls-5" d="M526.376,504.583h-.814a.273.273,0,0,1,.26.289,10.5,10.5,0,0,1-4.945,8.813,10.057,10.057,0,0,0,5.776-8.821A.276.276,0,0,0,526.376,504.583Z" transform="translate(-520.877 -504.583)"/>
      </g>
      <path id="路径_15" data-name="路径 15" class="cls-6" d="M437.238,504.583h-19.55a.276.276,0,0,0-.277.281,10.061,10.061,0,0,0,7.538,9.458V515.4h5.028v-1.082a10.061,10.061,0,0,0,7.538-9.458A.276.276,0,0,0,437.238,504.583Z" transform="translate(0 -39.27)"/>
    </g>
  </g>
</svg>
