<svg xmlns="http://www.w3.org/2000/svg" width="56" height="30" viewBox="0 0 56 30">
  <defs>
    <style>
      .cls-1, .cls-12, .cls-6 {
        fill: none;
      }

      .cls-1, .cls-10, .cls-9 {
        stroke: #000;
      }

      .cls-2 {
        font-size: 14px;
        font-family: PingFangSC-Heavy, PingFang SC;
        font-weight: 800;
      }

      .cls-3 {
        fill: #d15400;
      }

      .cls-4 {
        fill: #f26f16;
      }

      .cls-5 {
        fill: #ff8431;
      }

      .cls-10, .cls-6, .cls-9 {
        stroke-miterlimit: 10;
      }

      .cls-7 {
        fill: #d10729;
      }

      .cls-8 {
        fill: #e53349;
      }

      .cls-9 {
        fill: #ff8395;
      }

      .cls-10, .cls-9 {
        stroke-width: 0.5px;
      }

      .cls-10 {
        fill: #ffea85;
      }

      .cls-11, .cls-13 {
        stroke: none;
      }

      .cls-13 {
        fill: #000;
      }
    </style>
  </defs>
  <g id="记账-标签-住" transform="translate(-235 -191)">
    <g id="组_62" data-name="组 62" transform="translate(138)">
      <g id="组_47" data-name="组 47" transform="translate(69 41)">
        <g id="矩形_11" data-name="矩形 11" class="cls-1" transform="translate(28 150)">
          <rect class="cls-11" width="56" height="30" rx="15"/>
          <rect class="cls-12" x="0.5" y="0.5" width="55" height="29" rx="14.5"/>
        </g>
        <text id="住" class="cls-2" transform="translate(60.647 170)"><tspan x="0" y="0">住</tspan></text>
      </g>
    </g>
    <g id="组_65" data-name="组 65" transform="translate(-442.527 -257.279)">
      <path id="路径_16" data-name="路径 16" class="cls-3" d="M774.713,455.136v.407a.136.136,0,0,1-.136.136h0a.136.136,0,0,0-.136.136v5.29a.136.136,0,0,1-.136.136h-1.9a.136.136,0,0,1-.136-.136v-5.29a.136.136,0,0,0-.135-.136h0a.136.136,0,0,1-.136-.136v-.407a.136.136,0,0,1,.136-.136h2.441A.136.136,0,0,1,774.713,455.136Z" transform="translate(-74.292 -1.488)"/>
      <path id="路径_17" data-name="路径 17" class="cls-4" d="M774.442,455.136v.407a.136.136,0,0,1-.136.136h0a.136.136,0,0,0-.136.136v5.29a.136.136,0,0,1-.136.136h-1.628a.136.136,0,0,1-.136-.136v-5.29a.136.136,0,0,0-.135-.136h0a.136.136,0,0,1-.136-.136v-.407a.136.136,0,0,1,.136-.136h2.17A.136.136,0,0,1,774.442,455.136Z" transform="translate(-74.292 -1.488)"/>
      <rect id="矩形_26" data-name="矩形 26" class="cls-5" width="2.713" height="0.271" rx="0.136" transform="translate(697.708 453.512)"/>
      <g id="路径_18" data-name="路径 18" class="cls-6" transform="translate(-74.292 -1.488)">
        <path class="cls-11" d="M774.713,455.136v.407a.136.136,0,0,1-.136.136h0a.136.136,0,0,0-.136.136v5.29a.136.136,0,0,1-.136.136h-1.9a.136.136,0,0,1-.136-.136v-5.29a.136.136,0,0,0-.135-.136h0a.136.136,0,0,1-.136-.136v-.407a.136.136,0,0,1,.136-.136h2.441A.136.136,0,0,1,774.713,455.136Z"/>
        <path class="cls-13" d="M 772.688232421875 455.4999694824219 C 772.7410278320312 455.5926208496094 772.771240234375 455.6997375488281 772.771240234375 455.8138122558594 L 772.771240234375 460.7394104003906 L 773.9415283203125 460.7394104003906 L 773.9415283203125 455.8138122558594 C 773.9415283203125 455.6997375488281 773.9717407226562 455.5926208496094 774.0245361328125 455.4999694824219 L 772.688232421875 455.4999694824219 M 772.1357421875 454.9999694824219 L 774.5771484375 454.9999694824219 C 774.652099609375 454.9999694824219 774.712890625 455.060791015625 774.712890625 455.1356201171875 L 774.712890625 455.5425720214844 C 774.712890625 455.6174011230469 774.652099609375 455.6781921386719 774.5771484375 455.6781921386719 C 774.5023193359375 455.6781921386719 774.4415283203125 455.7389526367188 774.4415283203125 455.8138122558594 L 774.4415283203125 461.1037902832031 C 774.4415283203125 461.1786804199219 774.3807373046875 461.2394104003906 774.305908203125 461.2394104003906 L 772.406982421875 461.2394104003906 C 772.33203125 461.2394104003906 772.271240234375 461.1786804199219 772.271240234375 461.1037902832031 L 772.271240234375 455.8138122558594 C 772.271240234375 455.7389526367188 772.2105712890625 455.6781921386719 772.1357421875 455.6781921386719 C 772.060791015625 455.6781921386719 772 455.6174011230469 772 455.5425720214844 L 772 455.1356201171875 C 772 455.060791015625 772.060791015625 454.9999694824219 772.1357421875 454.9999694824219 Z"/>
      </g>
      <path id="路径_19" data-name="路径 19" class="cls-7" d="M704.527,460.694v11.672a.136.136,0,0,1-.136.136H686.186a.136.136,0,0,1-.136-.136V460.759a.271.271,0,0,1,.1-.212l8.571-6.874.2-.163.255-.2a.136.136,0,0,1,.169,0l9.126,7.28A.136.136,0,0,1,704.527,460.694Z"/>
      <path id="路径_20" data-name="路径 20" class="cls-8" d="M703.442,463.452v11.672a.136.136,0,0,1-.136.136h-17.12a.136.136,0,0,1-.136-.136V463.517a.271.271,0,0,1,.1-.212l8.487-6.807a.136.136,0,0,1,.169,0l8.583,6.848A.136.136,0,0,1,703.442,463.452Z" transform="translate(0 -2.757)"/>
      <g id="矩形_27" data-name="矩形 27" class="cls-9" transform="translate(693.549 467.347)">
        <rect class="cls-11" width="3.432" height="5.154" rx="1"/>
        <rect class="cls-12" x="0.25" y="0.25" width="2.932" height="4.654" rx="0.75"/>
      </g>
      <g id="椭圆_3" data-name="椭圆 3" class="cls-10" transform="translate(695.538 469.111)">
        <circle class="cls-11" cx="0.475" cy="0.475" r="0.475"/>
        <circle class="cls-12" cx="0.475" cy="0.475" r="0.225"/>
      </g>
      <g id="路径_21" data-name="路径 21" class="cls-6">
        <path class="cls-11" d="M704.527,460.694v11.672a.136.136,0,0,1-.136.136H686.186a.136.136,0,0,1-.136-.136V460.759a.271.271,0,0,1,.1-.212l8.775-7.037.255-.2a.136.136,0,0,1,.169,0l9.126,7.28A.136.136,0,0,1,704.527,460.694Z"/>
        <path class="cls-13" d="M 695.2650146484375 453.8801574707031 L 695.239013671875 453.90087890625 L 686.5499877929688 460.8692321777344 L 686.5499877929688 472.001708984375 L 704.02685546875 472.001708984375 L 704.02685546875 460.869873046875 L 695.2650146484375 453.8801574707031 M 695.2652587890625 453.2786254882812 C 695.295166015625 453.2786254882812 695.3250732421875 453.2884826660156 695.349853515625 453.3082275390625 L 704.475830078125 460.5884399414062 C 704.5079345703125 460.6140747070312 704.52685546875 460.6531982421875 704.52685546875 460.6943969726562 L 704.52685546875 472.3660888671875 C 704.52685546875 472.44091796875 704.466064453125 472.501708984375 704.3912963867188 472.501708984375 L 686.1856079101562 472.501708984375 C 686.1107177734375 472.501708984375 686.0499877929688 472.44091796875 686.0499877929688 472.3660888671875 L 686.0499877929688 460.7593383789062 C 686.0499877929688 460.677001953125 686.0872802734375 460.5991821289062 686.151611328125 460.5477905273438 L 695.180908203125 453.30810546875 C 695.20556640625 453.2884521484375 695.2354125976562 453.2786254882812 695.2652587890625 453.2786254882812 Z"/>
      </g>
    </g>
  </g>
</svg>
