<svg xmlns="http://www.w3.org/2000/svg" width="28.499" height="20.226" viewBox="0 0 28.499 20.226">
  <defs>
    <style>
      .cls-1 {
        fill: #ffe54d;
        stroke-miterlimit: 10;
      }

      .cls-2 {
        fill: #1c8bf9;
      }

      .cls-3 {
        fill: #4d91ff;
      }

      .cls-4, .cls-5 {
        stroke: none;
      }

      .cls-5 {
        fill: #000;
      }
    </style>
  </defs>
  <g id="其他图标" transform="translate(-664.545 -167)">
    <g id="路径_45" data-name="路径 45" class="cls-1" transform="translate(0 0)">
      <path class="cls-4" d="M 674.6576538085938 186.7255096435547 C 669.357177734375 186.7255096435547 665.044921875 182.4132385253906 665.044921875 177.1127471923828 C 665.044921875 171.812255859375 669.357177734375 167.4999847412109 674.6576538085938 167.4999847412109 C 679.9581909179688 167.4999847412109 684.2705078125 171.812255859375 684.2705078125 177.1127471923828 C 684.2705078125 182.4132385253906 679.9581909179688 186.7255096435547 674.6576538085938 186.7255096435547 Z M 674.6576538085938 172.1181793212891 C 671.9036865234375 172.1181793212891 669.6631469726562 174.3587341308594 669.6631469726562 177.1127471923828 C 669.6631469726562 179.8667449951172 671.9036865234375 182.1072998046875 674.6576538085938 182.1072998046875 C 677.4116821289062 182.1072998046875 679.6522216796875 179.8667449951172 679.6522216796875 177.1127471923828 C 679.6522216796875 174.3587341308594 677.4116821289062 172.1181793212891 674.6576538085938 172.1181793212891 Z"/>
      <path class="cls-5" d="M 674.6576538085938 167.9999847412109 C 669.6328735351562 167.9999847412109 665.544921875 172.0879516601562 665.544921875 177.1127471923828 C 665.544921875 182.1375427246094 669.6328735351562 186.2255096435547 674.6576538085938 186.2255096435547 C 679.6824951171875 186.2255096435547 683.7705078125 182.1375427246094 683.7705078125 177.1127471923828 C 683.7705078125 172.0879516601562 679.6824951171875 167.9999847412109 674.6576538085938 167.9999847412109 M 674.6576538085938 182.6072998046875 C 671.6279907226562 182.6072998046875 669.1631469726562 180.1424560546875 669.1631469726562 177.1127471923828 C 669.1631469726562 174.0830230712891 671.6279907226562 171.6181793212891 674.6576538085938 171.6181793212891 C 677.6873779296875 171.6181793212891 680.1522216796875 174.0830230712891 680.1522216796875 177.1127471923828 C 680.1522216796875 180.1424560546875 677.6873779296875 182.6072998046875 674.6576538085938 182.6072998046875 M 674.6576538085938 166.9999847412109 C 680.2428588867188 166.9999847412109 684.7705078125 171.5275421142578 684.7705078125 177.1127471923828 C 684.7705078125 182.6979370117188 680.2428588867188 187.2255096435547 674.6576538085938 187.2255096435547 C 669.0726928710938 187.2255096435547 664.544921875 182.6979370117188 664.544921875 177.1127471923828 C 664.544921875 171.5275421142578 669.0726928710938 166.9999847412109 674.6576538085938 166.9999847412109 Z M 674.6576538085938 181.6072998046875 C 677.1401977539062 181.6072998046875 679.1522216796875 179.5950012207031 679.1522216796875 177.1127471923828 C 679.1522216796875 174.6304779052734 677.1401977539062 172.6181793212891 674.6576538085938 172.6181793212891 C 672.1754760742188 172.6181793212891 670.1631469726562 174.6304779052734 670.1631469726562 177.1127471923828 C 670.1631469726562 179.5950012207031 672.1754760742188 181.6072998046875 674.6576538085938 181.6072998046875 Z"/>
    </g>
    <path id="路径_46" data-name="路径 46" class="cls-2" d="M787.753,196.421a6.516,6.516,0,1,1-6.512-6.512A6.512,6.512,0,0,1,787.753,196.421Z" transform="translate(-94.709 -19.692)"/>
    <path id="路径_47" data-name="路径 47" class="cls-3" d="M784.522,197.659a5.054,5.054,0,1,1-4.9-6.309A6.514,6.514,0,0,1,784.522,197.659Z" transform="translate(-94.709 -20.93)"/>
  </g>
</svg>
