<svg xmlns="http://www.w3.org/2000/svg" width="36" height="36" viewBox="0 0 36 36">
  <defs>
    <style>
      .cls-1 {
        fill: #fff;
        stroke: #707070;
        opacity: 0;
      }

      .cls-2, .cls-3, .cls-6 {
        fill: none;
      }

      .cls-2, .cls-3, .cls-4 {
        stroke-miterlimit: 10;
      }

      .cls-3 {
        stroke: #ffd91c;
        stroke-linecap: round;
      }

      .cls-3, .cls-4 {
        stroke-width: 2px;
      }

      .cls-4 {
        fill: #ffd91c;
        stroke: #686868;
      }

      .cls-5, .cls-7 {
        stroke: none;
      }

      .cls-7 {
        fill: #686868;
      }
    </style>
  </defs>
  <g id="标签栏-标签-选中" transform="translate(-170 -618)">
    <g id="矩形_34" class="cls-1" transform="translate(170 618)">
      <rect class="cls-5" width="36" height="36"/>
      <rect class="cls-6" x="0.5" y="0.5" width="35" height="35"/>
    </g>
    <g id="组_74" transform="translate(-896 362)">
      <g id="路径_44" class="cls-2">
        <path class="cls-5" d="M1093.667,289h-18.334c-1.841,0-3.333-1.132-3.333-2.528V265.236a2.534,2.534,0,0,1,1.765-2.231l9.166-3.708a4.293,4.293,0,0,1,3.138,0l9.166,3.708a2.534,2.534,0,0,1,1.765,2.231v21.236C1097,287.868,1095.508,289,1093.667,289Z"/>
        <path class="cls-7" d="M 1093.6669921875 287 C 1094.477294921875 287 1094.950073242188 286.6165771484375 1095 286.46484375 L 1095 265.2453002929688 C 1094.982177734375 265.1967163085938 1094.852172851562 265.0076599121094 1094.484985351562 264.8590393066406 L 1085.3203125 261.1515808105469 C 1085.074584960938 261.0524291992188 1084.791015625 261 1084.5 261 C 1084.208984375 261 1083.925415039062 261.0524291992188 1083.681030273438 261.1510314941406 L 1074.515380859375 264.85888671875 C 1074.14794921875 265.0076599121094 1074.017822265625 265.1967163085938 1074 265.2453002929688 L 1074 286.46484375 C 1074.049926757812 286.6165771484375 1074.522705078125 287 1075.3330078125 287 L 1093.6669921875 287 M 1093.6669921875 289 L 1075.3330078125 289 C 1073.491943359375 289 1072 287.8680114746094 1072 286.4719848632812 L 1072 265.2359924316406 C 1072 264.302001953125 1072.677978515625 263.4450073242188 1073.765014648438 263.0050048828125 L 1082.931030273438 259.2969970703125 C 1083.911987304688 258.9010009765625 1085.088012695312 258.9010009765625 1086.068969726562 259.2969970703125 L 1095.234985351562 263.0050048828125 C 1096.322021484375 263.4450073242188 1097 264.302001953125 1097 265.2359924316406 L 1097 286.4719848632812 C 1097 287.8680114746094 1095.508056640625 289 1093.6669921875 289 Z"/>
      </g>
      <line id="直线_16" class="cls-3" x2="14" transform="translate(1078 273.5)"/>
      <line id="直线_17" class="cls-3" x2="10" transform="translate(1078 278.5)"/>
      <line id="直线_18" class="cls-3" x2="12" transform="translate(1078 283.5)"/>
      <g id="矩形_39" class="cls-4" transform="translate(1081.25 261.5)">
        <rect class="cls-5" width="6.5" height="6.5" rx="3.25"/>
        <rect class="cls-6" x="1" y="1" width="4.5" height="4.5" rx="2.25"/>
      </g>
    </g>
  </g>
</svg>
