<svg xmlns="http://www.w3.org/2000/svg" width="36" height="36" viewBox="0 0 36 36">
  <defs>
    <style>
      .cls-1 {
        fill: #fff;
        stroke: #707070;
        opacity: 0;
      }

      .cls-2, .cls-3, .cls-4, .cls-6 {
        fill: none;
      }

      .cls-2, .cls-3, .cls-4 {
        stroke-miterlimit: 10;
      }

      .cls-3, .cls-4 {
        stroke: #686868;
        stroke-width: 2px;
      }

      .cls-3 {
        stroke-linecap: round;
      }

      .cls-5, .cls-7 {
        stroke: none;
      }

      .cls-7 {
        fill: #686868;
      }
    </style>
  </defs>
  <g id="标签栏-标签-未选中" transform="translate(-170 -618)">
    <g id="矩形_34" class="cls-1" transform="translate(170 618)">
      <rect class="cls-5" width="36" height="36"/>
      <rect class="cls-6" x="0.5" y="0.5" width="35" height="35"/>
    </g>
    <g id="组_69" transform="translate(-896 398)">
      <g id="路径_34" class="cls-2">
        <path class="cls-5" d="M1093.667,253h-18.334c-1.841,0-3.333-1.132-3.333-2.528V229.236a2.534,2.534,0,0,1,1.765-2.231l9.166-3.708a4.293,4.293,0,0,1,3.138,0l9.166,3.708a2.534,2.534,0,0,1,1.765,2.231v21.236C1097,251.868,1095.508,253,1093.667,253Z"/>
        <path class="cls-7" d="M 1093.6669921875 251 C 1094.477294921875 251 1094.950073242188 250.6165618896484 1095 250.46484375 L 1095 229.2453002929688 C 1094.982177734375 229.1967010498047 1094.852172851562 229.0076599121094 1094.484985351562 228.8590545654297 L 1085.3203125 225.1515960693359 C 1085.074584960938 225.0524139404297 1084.791015625 225 1084.5 225 C 1084.208984375 225 1083.925415039062 225.0524139404297 1083.681030273438 225.1510467529297 L 1074.515380859375 228.8589019775391 C 1074.14794921875 229.0076599121094 1074.017822265625 229.1967010498047 1074 229.2453002929688 L 1074 250.46484375 C 1074.049926757812 250.6165618896484 1074.522705078125 251 1075.3330078125 251 L 1093.6669921875 251 M 1093.6669921875 253 L 1075.3330078125 253 C 1073.491943359375 253 1072 251.8679962158203 1072 250.4720001220703 L 1072 229.2359924316406 C 1072 228.302001953125 1072.677978515625 227.4450073242188 1073.765014648438 227.0050048828125 L 1082.931030273438 223.2969970703125 C 1083.911987304688 222.9010009765625 1085.088012695312 222.9010009765625 1086.068969726562 223.2969970703125 L 1095.234985351562 227.0050048828125 C 1096.322021484375 227.4450073242188 1097 228.302001953125 1097 229.2359924316406 L 1097 250.4720001220703 C 1097 251.8679962158203 1095.508056640625 253 1093.6669921875 253 Z"/>
      </g>
      <line id="直线_8" class="cls-3" x2="14" transform="translate(1078 237.5)"/>
      <line id="直线_9" class="cls-3" x2="10" transform="translate(1078 242.5)"/>
      <line id="直线_10" class="cls-3" x2="12" transform="translate(1078 247.5)"/>
      <g id="矩形_37" class="cls-4" transform="translate(1081.25 225.5)">
        <rect class="cls-5" width="6.5" height="6.5" rx="3.25"/>
        <rect class="cls-6" x="1" y="1" width="4.5" height="4.5" rx="2.25"/>
      </g>
    </g>
  </g>
</svg>
