<svg xmlns="http://www.w3.org/2000/svg" xmlns:xlink="http://www.w3.org/1999/xlink" width="56" height="30" viewBox="0 0 56 30">
  <defs>
    <style>
      .cls-1, .cls-11, .cls-15, .cls-17, .cls-18, .cls-5 {
        fill: none;
      }

      .cls-1, .cls-11, .cls-12, .cls-13, .cls-6, .cls-7 {
        stroke: #000;
      }

      .cls-2 {
        font-size: 14px;
        font-family: PingFangSC-Heavy, PingFang SC;
        font-weight: 800;
      }

      .cls-3 {
        fill: #f46a0c;
      }

      .cls-4, .cls-7, .cls-8 {
        fill: #ffa364;
      }

      .cls-11, .cls-12, .cls-13, .cls-5, .cls-6, .cls-7, .cls-8 {
        stroke-miterlimit: 10;
      }

      .cls-10, .cls-6 {
        fill: #3df47a;
      }

      .cls-11, .cls-12, .cls-13, .cls-6, .cls-7 {
        stroke-width: 0.5px;
      }

      .cls-9 {
        fill: #05dd47;
      }

      .cls-12 {
        fill: #fff;
      }

      .cls-12, .cls-13 {
        stroke-linecap: round;
      }

      .cls-13 {
        fill: #d8d8d8;
      }

      .cls-14, .cls-16 {
        stroke: none;
      }

      .cls-16 {
        fill: #000;
      }

      .cls-17 {
        clip-path: url(#clip);
      }

      .cls-18 {
        clip-path: url(#clip-2);
      }
    </style>
    <clipPath id="clip">
      <use xlink:href="#fill"/>
    </clipPath>
    <clipPath id="clip-2">
      <use xlink:href="#fill-2"/>
    </clipPath>
  </defs>
  <g id="记账-标签-行" transform="translate(-304 -191)">
    <g id="组_66" data-name="组 66" transform="translate(207)">
      <g id="组_47" data-name="组 47" transform="translate(69 41)">
        <g id="矩形_11" data-name="矩形 11" class="cls-1" transform="translate(28 150)">
          <rect class="cls-14" width="56" height="30" rx="15"/>
          <rect class="cls-15" x="0.5" y="0.5" width="55" height="29" rx="14.5"/>
        </g>
        <text id="行" class="cls-2" transform="translate(60.647 170)"><tspan x="0" y="0">行</tspan></text>
      </g>
    </g>
    <g id="组_67" data-name="组 67" transform="translate(-615.531 -260)">
      <path id="路径_22" data-name="路径 22" class="cls-3" d="M933.585,510.1a4.759,4.759,0,0,1-4.758,4.758c-.135,0-.271-.006-.4-.018a4.758,4.758,0,0,1,0-9.481c.132-.011.268-.018.4-.018A4.759,4.759,0,0,1,933.585,510.1Z" transform="translate(0 -41.482)"/>
      <ellipse id="椭圆_4" data-name="椭圆 4" class="cls-4" cx="4.355" cy="4.741" rx="4.355" ry="4.741" transform="translate(924.068 463.879)"/>
      <g id="路径_23" data-name="路径 23" class="cls-5" transform="translate(0 -41.482)">
        <path class="cls-14" d="M933.585,510.1a4.759,4.759,0,0,1-4.758,4.758c-.135,0-.271-.006-.4-.018a4.758,4.758,0,0,1,0-9.481c.132-.011.268-.018.4-.018A4.759,4.759,0,0,1,933.585,510.1Z"/>
        <path class="cls-16" d="M 928.8262939453125 514.360595703125 C 931.17431640625 514.360595703125 933.0845947265625 512.4503173828125 933.0845947265625 510.1023254394531 C 933.0845947265625 507.7543029785156 931.17431640625 505.8440246582031 928.8262939453125 505.8440246582031 C 928.7107543945312 505.8440246582031 928.58935546875 505.849365234375 928.4649047851562 505.8599548339844 C 927.4053955078125 505.948974609375 926.4227905273438 506.4297790527344 925.6981201171875 507.2137451171875 C 924.9693603515625 508.0021362304688 924.5679931640625 509.0279846191406 924.5679931640625 510.1023254394531 C 924.5679931640625 511.1766967773438 924.9693603515625 512.2025146484375 925.6981201171875 512.9909057617188 C 926.4227905273438 513.7749633789062 927.4053955078125 514.2556762695312 928.465576171875 514.3447265625 C 928.5890502929688 514.355224609375 928.71044921875 514.360595703125 928.8262939453125 514.360595703125 M 928.8262939453125 514.860595703125 C 928.6908569335938 514.860595703125 928.5552978515625 514.8541870117188 928.4230346679688 514.8428955078125 C 925.9841918945312 514.6381225585938 924.0679931640625 512.5943603515625 924.0679931640625 510.1023254394531 C 924.0679931640625 507.6102905273438 925.9841918945312 505.5666198730469 928.4230346679688 505.3617248535156 C 928.5552978515625 505.3504638671875 928.6908569335938 505.3440246582031 928.8262939453125 505.3440246582031 C 931.4539184570312 505.3440246582031 933.5845947265625 507.4748229980469 933.5845947265625 510.1023254394531 C 933.5845947265625 512.72998046875 931.4539184570312 514.860595703125 928.8262939453125 514.860595703125 Z"/>
      </g>
      <rect id="矩形_28" data-name="矩形 28" class="cls-6" width="0.645" height="3.307" transform="translate(935.601 459.345)"/>
      <path id="矩形_29" data-name="矩形 29" class="cls-6" d="M.346,0h2.6a.44.44,0,0,1,.44.44v0a.238.238,0,0,1-.238.238H.288A.288.288,0,0,1,0,.389V.346A.346.346,0,0,1,.346,0Z" transform="translate(935.117 459.007)"/>
      <path id="路径_24" data-name="路径 24" class="cls-3" d="M1067.585,510.1a4.759,4.759,0,0,1-4.758,4.758c-.135,0-.271-.006-.4-.018a4.758,4.758,0,0,1,0-9.481c.132-.011.268-.018.4-.018A4.759,4.759,0,0,1,1067.585,510.1Z" transform="translate(-117.409 -41.482)"/>
      <ellipse id="椭圆_5" data-name="椭圆 5" class="cls-4" cx="4.355" cy="4.741" rx="4.355" ry="4.741" transform="translate(940.658 463.879)"/>
      <g id="矩形_30" data-name="矩形 30" class="cls-7" transform="translate(941.463 460.349) rotate(-36.552)">
        <rect id="fill" class="cls-14" width="1.613" height="0.484"/>
        <path class="cls-17" d="M0,0.23389855027198792h1.6129951477050781M1.3629951477050781,0v0.4838985502719879M1.6129951477050781,0.25h-1.6129951477050781M0.25,0.4838985502719879v-0.4838985502719879"/>
      </g>
      <g id="矩形_31" data-name="矩形 31" class="cls-7" transform="matrix(0.976, -0.22, 0.22, 0.976, 940.929, 460.305)">
        <rect class="cls-14" width="0.822" height="3.226"/>
        <rect class="cls-15" x="0.25" y="0.25" width="0.322" height="2.726"/>
      </g>
      <g id="路径_25" data-name="路径 25" class="cls-8" transform="translate(-118.044 -28.308)">
        <path class="cls-14" d="M 1060.833862304688 491.9201965332031 L 1059.64599609375 491.8910827636719 L 1059.159912109375 490.9670104980469 L 1060.485961914062 490.6138305664062 L 1060.833862304688 491.9201965332031 Z"/>
        <path class="cls-16" d="M 1060.50634765625 491.662109375 L 1060.308715820312 490.9197387695312 L 1059.526977539062 491.1279602050781 L 1059.798950195312 491.6447448730469 L 1060.50634765625 491.662109375 M 1061.161254882812 492.1783142089844 L 1059.4931640625 492.1373901367188 L 1058.792724609375 490.8060913085938 L 1060.663208007812 490.3078918457031 L 1061.161254882812 492.1783142089844 Z"/>
      </g>
      <path id="路径_26" data-name="路径 26" class="cls-9" d="M973.78,495.829a.764.764,0,0,1-.456.524.637.637,0,0,1-.215.039.719.719,0,0,1-.67-.56,8.089,8.089,0,0,0-15.524,0,.689.689,0,0,1-.885.521.764.764,0,0,1-.456-.524.921.921,0,0,1,0-.49,9.441,9.441,0,0,1,18.2,0A.917.917,0,0,1,973.78,495.829Z" transform="translate(-27.577 -26.643)"/>
      <path id="路径_27" data-name="路径 27" class="cls-10" d="M974.01,499.254a.764.764,0,0,1-.456.524.638.638,0,0,1-.215.039.719.719,0,0,1-.67-.56,8.089,8.089,0,0,0-15.524,0,.689.689,0,0,1-.885.521.764.764,0,0,1-.456-.524s0,0,0-.006a9.441,9.441,0,0,1,18.2,0S974.01,499.252,974.01,499.254Z" transform="translate(-27.807 -30.067)"/>
      <path id="路径_28" data-name="路径 28" class="cls-11" d="M973.78,495.829a.764.764,0,0,1-.456.524.637.637,0,0,1-.215.039.719.719,0,0,1-.67-.56,8.089,8.089,0,0,0-15.524,0,.689.689,0,0,1-.885.521.764.764,0,0,1-.456-.524.921.921,0,0,1,0-.49,9.441,9.441,0,0,1,18.2,0A.917.917,0,0,1,973.78,495.829Z" transform="translate(-27.577 -26.643)"/>
      <circle id="椭圆_6" data-name="椭圆 6" class="cls-12" cx="1.29" cy="1.29" r="1.29" transform="translate(927.536 467.33)"/>
      <circle id="椭圆_7" data-name="椭圆 7" class="cls-13" cx="0.484" cy="0.484" r="0.484" transform="translate(928.342 468.136)"/>
      <circle id="椭圆_8" data-name="椭圆 8" class="cls-12" cx="1.29" cy="1.29" r="1.29" transform="translate(944.126 467.33)"/>
      <circle id="椭圆_9" data-name="椭圆 9" class="cls-13" cx="0.484" cy="0.484" r="0.484" transform="translate(944.933 468.136)"/>
      <g id="矩形_32" data-name="矩形 32" class="cls-7" transform="translate(941.947 458) rotate(53.448)">
        <rect id="fill-2" class="cls-14" width="2.192" height="0.484"/>
        <path class="cls-18" d="M0,0.23389855027198792h2.1915910243988037M1.9415910243988037,0v0.4838985502719879M2.1915910243988037,0.25h-2.1915910243988037M0.25,0.4838985502719879v-0.4838985502719879"/>
      </g>
      <g id="路径_29" data-name="路径 29" class="cls-5" transform="translate(-117.409 -41.482)">
        <path class="cls-14" d="M1067.585,510.1a4.759,4.759,0,0,1-4.758,4.758c-.135,0-.271-.006-.4-.018a4.758,4.758,0,0,1,0-9.481c.132-.011.268-.018.4-.018A4.759,4.759,0,0,1,1067.585,510.1Z"/>
        <path class="cls-16" d="M 1062.826293945312 514.360595703125 C 1065.17431640625 514.360595703125 1067.084594726562 512.4503173828125 1067.084594726562 510.1023254394531 C 1067.084594726562 507.7543029785156 1065.17431640625 505.8440246582031 1062.826293945312 505.8440246582031 C 1062.710693359375 505.8440246582031 1062.58935546875 505.849365234375 1062.464965820312 505.8599548339844 C 1061.405517578125 505.948974609375 1060.4228515625 506.4297790527344 1059.698120117188 507.2137451171875 C 1058.969360351562 508.0021362304688 1058.567993164062 509.0279846191406 1058.567993164062 510.1023254394531 C 1058.567993164062 511.1766662597656 1058.969360351562 512.2025146484375 1059.698120117188 512.9909057617188 C 1060.4228515625 513.7749633789062 1061.405395507812 514.2556762695312 1062.465698242188 514.3447265625 C 1062.589111328125 514.355224609375 1062.71044921875 514.360595703125 1062.826293945312 514.360595703125 M 1062.826293945312 514.860595703125 C 1062.690795898438 514.860595703125 1062.555297851562 514.8541870117188 1062.423095703125 514.8428955078125 C 1059.984252929688 514.6381225585938 1058.067993164062 512.5943603515625 1058.067993164062 510.1023254394531 C 1058.067993164062 507.6102905273438 1059.984252929688 505.5666198730469 1062.423095703125 505.3617248535156 C 1062.555297851562 505.3504638671875 1062.690795898438 505.3440246582031 1062.826293945312 505.3440246582031 C 1065.453857421875 505.3440246582031 1067.584594726562 507.4748229980469 1067.584594726562 510.1023254394531 C 1067.584594726562 512.72998046875 1065.453857421875 514.860595703125 1062.826293945312 514.860595703125 Z"/>
      </g>
    </g>
  </g>
</svg>
